<svg width="256" height="256" viewBox="0 0 256 256" fill="none" xmlns="http://www.w3.org/2000/svg">
<rect width="256" height="256" fill="#18003E"/>
<path d="M169.527 104.255H146.045C145.997 103.414 145.925 102.602 145.909 101.787C145.857 99.0193 145.414 96.3241 144.549 93.6889C143.314 89.9337 140.805 87.4449 137.113 86.1513C132.719 84.6129 128.166 84.2433 123.558 84.5665C120.393 84.7889 117.295 85.3065 114.275 86.4361C105.348 89.7769 103.592 102.149 109.788 108.068C112.876 111.018 116.473 113.001 120.417 114.41C128.846 117.421 137.305 120.348 145.752 123.307C148.213 124.169 150.697 124.969 153.135 125.89C159.747 128.394 165.35 132.312 169.584 138.022C172.559 142.037 174.091 146.582 174.255 151.602C174.437 157.174 173.735 162.574 171.433 167.702C168.221 174.862 162.686 179.707 155.852 183.212C150.409 186.002 144.589 187.607 138.559 188.556C132.393 189.525 126.195 189.618 119.993 189.315C114.053 189.026 108.256 187.92 102.703 185.67C92.1359 181.382 85.8415 173.502 83.2087 162.559C82.1839 158.3 81.6391 153.973 81.9015 149.594C83.3863 149.132 101.084 148.991 104.166 149.42C104.35 151.466 104.51 153.55 104.731 155.628C105.001 158.166 105.621 160.611 106.685 162.946C108.232 166.339 110.749 168.722 114.259 169.888C116.45 170.617 118.739 171.272 121.025 171.458C127.023 171.945 133.021 171.794 138.812 169.864C144.329 168.026 148.23 164.626 149.437 158.639C150.402 153.852 149.136 149.874 145.464 146.646C141.809 143.434 137.605 141.1 133.077 139.483C126.246 137.046 119.32 134.874 112.413 132.652C108.994 131.551 105.413 130.875 102.105 129.519C91.6791 125.248 84.4167 118.04 82.3375 106.582C81.1327 99.9449 81.6391 93.3601 84.2327 87.0577C87.4575 79.2219 93.5319 74.2767 101.05 70.917C107.373 68.0919 114.061 66.806 120.961 66.595C128.598 66.3611 136.183 66.7073 143.612 68.7287C149.34 70.2874 154.62 72.7252 159.03 76.7664C164.567 81.8385 167.494 88.3017 168.638 95.6137C169.071 98.3793 169.221 101.188 169.527 104.255Z" fill="white"/>
</svg>
