<svg width="2048" height="2048" viewBox="0 0 2048 2048" fill="none" xmlns="http://www.w3.org/2000/svg">
<rect width="2048" height="2048" fill="#522FAD"/>
<path d="M1246.68 1043.12C1247.16 1050.04 1247.69 1060.94 1248.77 1071.78C1249.6 1080.19 1251.38 1088.47 1254.23 1096.48C1259.47 1111.24 1268.4 1122.7 1283.6 1128.44C1294.31 1132.48 1305.41 1132.79 1316.63 1131.51C1323.31 1130.74 1329.67 1128.85 1335.59 1125.6C1348.16 1118.7 1355.31 1107.7 1359.41 1094.46C1364.38 1078.43 1365.49 1061.83 1365.64 1045.25C1365.76 1031.9 1364.97 1018.52 1363.93 1005.21C1363.15 995.108 1361.22 985.113 1357.55 975.557C1350.73 957.777 1338.26 946.535 1319.08 943.195C1311.4 941.857 1303.68 941.656 1295.93 942.832C1282.62 944.851 1271.55 950.641 1263.36 961.433C1257.95 968.556 1254.59 976.609 1252.39 985.166C1247.84 1002.88 1247.22 1020.99 1246.68 1043.12ZM1420.37 1031.64C1419.99 1053.39 1418.21 1074.93 1412.5 1096C1408.82 1109.6 1403.59 1122.54 1395.05 1133.95C1382.84 1150.29 1366.46 1160.57 1346.88 1165.95C1327.96 1171.15 1308.68 1171.89 1289.21 1170.03C1277.23 1168.88 1265.68 1166.12 1254.69 1161.24C1233.32 1151.74 1218.45 1135.81 1208.66 1115C1201.52 1099.83 1197.6 1083.76 1195.41 1067.22C1193.48 1052.56 1192.5 1037.85 1192.98 1023.08C1193.6 1003.99 1195.76 985.115 1202.35 966.963C1214.32 934.017 1237.56 913.714 1272.05 906.375C1296.04 901.271 1320.16 901.273 1343.98 907.343C1376.09 915.525 1397.65 935.669 1409.67 966.062C1415.14 979.896 1418.11 994.304 1419.15 1009.1C1419.67 1016.61 1419.97 1024.13 1420.37 1031.64Z" fill="#FFC53D"/>
<path d="M1490.52 1041.34C1490.8 1047.4 1490.92 1055.4 1491.61 1063.35C1492.58 1074.53 1494.19 1085.62 1497.94 1096.3C1503.2 1111.25 1512.23 1122.8 1527.62 1128.55C1538.19 1132.49 1549.16 1132.79 1560.21 1131.55C1566.88 1130.8 1573.27 1128.95 1579.19 1125.71C1591.94 1118.76 1599.13 1107.64 1603.26 1094.22C1608.1 1078.47 1609.24 1062.19 1609.4 1045.92C1609.53 1032.27 1608.74 1018.57 1607.68 1004.95C1606.91 995.014 1604.98 985.173 1601.39 975.753C1594.61 957.964 1582.23 946.663 1563.05 943.238C1555.21 941.837 1547.34 941.645 1539.44 942.876C1526.14 944.948 1515.11 950.811 1506.97 961.656C1500.83 969.846 1497.4 979.173 1495.22 989.013C1491.54 1005.61 1490.91 1022.5 1490.52 1041.34ZM1664.15 1031.47C1663.75 1053.21 1662 1074.75 1656.32 1095.84C1653.51 1106.26 1649.79 1116.35 1644.28 1125.71C1632.73 1145.36 1615.8 1158.51 1593.93 1164.93C1566.25 1173.04 1538.22 1173.54 1510.42 1165.59C1483.3 1157.83 1464.39 1140.31 1452.51 1115.18C1445.34 1100.02 1441.4 1083.95 1439.21 1067.41C1437.27 1052.75 1436.28 1038.04 1436.75 1023.27C1437.35 1004.18 1439.5 985.302 1446.06 967.141C1458.04 933.993 1481.42 913.623 1516.09 906.313C1539.93 901.287 1563.91 901.295 1587.58 907.295C1619.69 915.435 1641.31 935.523 1653.38 965.898C1658.88 979.723 1661.85 994.134 1662.91 1008.93C1663.45 1016.43 1663.74 1023.95 1664.15 1031.47Z" fill="#FFC53D"/>
<path d="M971.928 1007.22C971.615 1001.42 971.439 996.093 971.015 990.781C970.363 982.664 969.14 974.631 966.509 966.875C963.115 956.868 956.832 949.315 946.657 945.742C941.756 944.021 936.494 942.872 931.313 942.446C911.631 940.826 894.807 947.415 885.731 966.988C880.064 979.2 878.147 992.191 877.925 1005.5C877.915 1006.04 878.261 1006.59 878.466 1007.22H971.928ZM1025.84 1045.5H878.802C878.375 1046.09 878.056 1046.32 878.046 1046.57C877.475 1063.49 877.511 1080.4 881.737 1096.94C883.093 1102.24 885.121 1107.53 887.768 1112.32C893.197 1122.15 901.941 1128.03 912.912 1130.53C924.3 1133.13 935.715 1132.99 946.953 1129.77C961.915 1125.49 970.206 1115.23 972.951 1100.3C974.324 1092.84 974.458 1085.34 973.186 1077.84C973.01 1076.8 973.16 1075.71 973.16 1073.95C989.683 1073.93 1006.19 1073.94 1022.82 1073.94C1023.05 1074.85 1023.3 1075.41 1023.31 1075.98C1023.47 1090.87 1021.29 1105.39 1015.73 1119.29C1006.86 1141.46 990.766 1156.3 968.299 1164.5C957.292 1168.51 945.881 1170.48 934.176 1170.87C920.003 1171.33 905.987 1170.53 892.287 1166.41C870.071 1159.74 853.59 1146.18 842.433 1126.12C834.703 1112.22 830.324 1097.23 827.687 1081.69C824.746 1064.36 823.631 1046.89 824.218 1029.35C824.876 1009.81 827.061 990.459 833.213 971.725C837.865 957.548 844.461 944.414 854.206 932.981C868.03 916.758 885.848 907.385 906.871 904.384C926.4 901.598 945.881 902.526 964.954 907.931C983.89 913.298 999.145 923.694 1009.31 940.751C1014.58 949.598 1017.41 959.322 1019.54 969.278C1022.11 981.318 1023.71 993.49 1024.3 1005.78C1024.86 1017.29 1025.34 1028.8 1025.83 1040.31C1025.89 1041.82 1025.84 1043.33 1025.84 1045.5Z" fill="#FFC53D"/>
<path d="M641.756 1164.82H589.805V1142.25C588.279 1143.46 587.318 1144.09 586.515 1144.88C568.923 1162.27 547.568 1170.55 522.859 1170.87C508.973 1171.05 495.279 1169.99 482.075 1165.36C458.272 1157.01 446.062 1139.8 443.585 1115.39C442.92 1108.84 442.818 1102.21 442.812 1095.61C442.756 1035.65 442.779 975.69 442.779 915.73V910.014H494.715C494.784 911.832 494.911 913.614 494.911 915.396C494.921 977.662 494.91 1039.93 494.948 1102.19C494.95 1105.41 495.171 1108.64 495.615 1111.82C497.14 1122.73 502.686 1128.9 513.493 1130.8C527.093 1133.2 540.713 1132.81 554.026 1128.9C573.637 1123.13 584.36 1109.46 587.846 1089.99C589.059 1083.23 589.561 1076.26 589.58 1069.38C589.717 1018.18 589.655 966.983 589.655 915.786V910.029H641.756V1164.82Z" fill="#FFC53D"/>
<path d="M417.204 985.276H365.538C365.432 983.441 365.273 981.67 365.239 979.897C365.125 973.863 364.15 967.988 362.245 962.244C359.529 954.059 354.008 948.633 345.883 945.814C336.217 942.46 326.199 941.654 316.06 942.36C309.097 942.844 302.281 943.972 295.636 946.435C275.993 953.717 272.13 980.685 285.762 993.587C292.557 1000.02 300.473 1004.34 309.151 1007.41C327.696 1013.97 346.307 1020.35 364.893 1026.8C370.307 1028.68 375.774 1030.42 381.137 1032.44C395.685 1037.89 408.013 1046.43 417.327 1058.88C423.875 1067.63 427.245 1077.54 427.606 1088.48C428.006 1100.62 426.461 1112.39 421.399 1123.57C414.33 1139.18 402.151 1149.74 387.115 1157.38C375.139 1163.46 362.336 1166.96 349.067 1169.03C335.501 1171.14 321.862 1171.34 308.217 1170.68C295.149 1170.05 282.392 1167.64 270.175 1162.74C246.924 1153.39 233.075 1136.22 227.281 1112.36C225.027 1103.08 223.828 1093.65 224.405 1084.1C227.672 1083.09 266.611 1082.79 273.393 1083.72C273.798 1088.18 274.151 1092.72 274.636 1097.25C275.229 1102.78 276.596 1108.12 278.937 1113.21C282.339 1120.6 287.879 1125.79 295.6 1128.34C300.422 1129.93 305.458 1131.35 310.488 1131.76C323.685 1132.82 336.88 1132.49 349.623 1128.29C361.761 1124.28 370.345 1116.86 373.001 1103.82C375.125 1093.38 372.337 1084.71 364.258 1077.68C356.217 1070.67 346.968 1065.59 337.004 1062.06C321.975 1056.75 306.736 1052.01 291.54 1047.17C284.016 1044.77 276.138 1043.3 268.859 1040.34C245.919 1031.03 229.94 1015.32 225.365 990.348C222.715 975.881 223.829 961.527 229.535 947.789C236.631 930.709 249.995 919.93 266.538 912.607C280.449 906.449 295.164 903.646 310.347 903.186C327.151 902.676 343.839 903.431 360.184 907.837C372.786 911.234 384.403 916.548 394.109 925.357C406.29 936.413 412.73 950.502 415.248 966.439C416.2 972.467 416.53 978.591 417.204 985.276Z" fill="#FFC53D"/>
<path d="M1132.87 1164.93H1079.94V949.371C1065.5 949.062 1051.46 949.398 1037.54 949.177C1036.52 945.706 1036.22 916.632 1037.14 909.927H1079.85C1079.85 907.628 1079.79 905.841 1079.86 904.059C1080.4 889.462 1081.46 874.926 1085.38 860.752C1087.11 854.493 1089.52 848.522 1093.14 843.08C1096.94 837.383 1101.86 832.923 1108.59 831.157C1116.36 829.119 1124.2 827.072 1132.13 826.006C1147.21 823.982 1162.42 823.561 1177.64 823.747C1178.39 823.756 1179.13 823.882 1180.19 823.983V863.293C1178.29 863.293 1176.48 863.277 1174.67 863.296C1165.21 863.393 1155.77 863.522 1146.4 865.246C1141.06 866.229 1137.59 868.819 1136.5 874.162C1135.65 878.368 1134.63 882.572 1134.2 886.827C1133.47 894.262 1133.14 901.736 1132.6 909.657H1179.51C1180.71 913.186 1181.09 940.369 1180.14 949.038C1175.04 949.47 1169.81 949.181 1164.6 949.233C1159.48 949.285 1154.36 949.244 1149.24 949.244H1132.87V1164.93Z" fill="#FFC53D"/>
<path d="M1824 1125.68V1164.67C1822.77 1164.81 1821.61 1165.06 1820.44 1165.07C1802.9 1165.08 1785.37 1165.2 1767.84 1165.01C1759.31 1164.91 1750.83 1164 1742.67 1161.17C1734.34 1158.27 1728.95 1152.52 1725.63 1144.61C1722.23 1136.5 1721.45 1127.94 1721.44 1119.31C1721.37 1064.74 1721.4 1010.17 1721.4 955.602V949.193H1680.41V909.899C1684.76 909.521 1689.2 909.771 1693.62 909.728C1698.12 909.684 1702.62 909.718 1707.12 909.718H1721.24C1721.55 904.01 1721.36 898.544 1721.39 893.092C1721.43 887.559 1721.4 882.024 1721.4 876.49V843.928C1725.02 842.842 1763.78 842.464 1773.3 843.385C1773.55 848.746 1773.38 854.219 1773.41 859.681C1773.44 865.215 1773.42 870.749 1773.42 876.283V909.626C1790.37 909.847 1807.02 909.617 1823.95 909.763V949.079H1773.74C1773.61 950.816 1773.43 952.145 1773.43 953.473C1773.42 1007.74 1773.42 1062 1773.43 1116.26C1773.43 1121.88 1775 1124.06 1780.44 1125.55C1790.33 1128.25 1800.41 1127.74 1810.48 1127.01C1814.79 1126.7 1819.08 1126.17 1824 1125.68Z" fill="#FFC53D"/>
<path d="M726.489 1164.92H674.943C674.79 1164.78 674.673 1164.68 674.565 1164.57C674.461 1164.46 674.301 1164.35 674.288 1164.22C674.187 1163.31 674.05 1162.39 674.05 1161.48C674.053 1078.16 674.066 994.83 674.099 911.506C674.099 911.084 674.356 910.663 674.571 910.003H724.618C725.482 919.519 724.513 928.996 725.195 939.062C726.134 938.222 726.708 937.812 727.151 937.293C739.791 922.556 755.803 913.518 774.883 909.822C787.552 907.366 800.388 906.529 813.293 906.762C813.746 906.771 814.199 906.92 815.34 907.13C815.477 921.54 815.36 936.046 815.405 950.937C811.724 951.521 808.392 951.006 805.064 950.764C798.266 950.27 791.465 949.388 784.667 949.39C756.572 949.401 732.834 969.229 728.113 996.667C727.102 1002.53 726.858 1008.58 726.845 1014.55C726.747 1062.67 726.792 1110.79 726.776 1158.91C726.776 1160.86 726.594 1162.8 726.489 1164.92Z" fill="#FFC53D"/>
</svg>
